<svg width="20" height="16" viewBox="0 0 20 16" fill="none" xmlns="http://www.w3.org/2000/svg">
<path d="M17.9368 0H1.26316C0.565535 0 0 0.565535 0 1.26316C0 1.96078 0.565535 2.52632 1.26316 2.52632H17.9368C18.6345 2.52632 19.2 1.96078 19.2 1.26316C19.2 0.565535 18.6345 0 17.9368 0Z" fill="#FDFDFD"/>
<path d="M17.9368 13.4737H1.26316C0.565535 13.4737 0 14.0392 0 14.7368C0 15.4345 0.565535 16 1.26316 16H17.9368C18.6345 16 19.2 15.4345 19.2 14.7368C19.2 14.0392 18.6345 13.4737 17.9368 13.4737Z" fill="#FDFDFD"/>
<path d="M17.9368 6.73684H1.26316C0.565535 6.73684 0 7.30238 0 8C0 8.69762 0.565535 9.26316 1.26316 9.26316H17.9368C18.6345 9.26316 19.2 8.69762 19.2 8C19.2 7.30238 18.6345 6.73684 17.9368 6.73684Z" fill="#FDFDFD"/>
</svg>
